<?xml version="1.0" encoding="UTF-8"?>
<!DOCTYPE svg PUBLIC "-//W3C//DTD SVG 1.1//EN" "http://www.w3.org/Graphics/SVG/1.1/DTD/svg11.dtd">
<!-- Creator: CorelDRAW 2017 -->
<svg xmlns="http://www.w3.org/2000/svg" xml:space="preserve" width="17.758mm" height="17.758mm" version="1.1" style="shape-rendering:geometricPrecision; text-rendering:geometricPrecision; image-rendering:optimizeQuality; fill-rule:evenodd; clip-rule:evenodd"
viewBox="0 0 1775.8 1775.8"
 xmlns:xlink="http://www.w3.org/1999/xlink">
 <defs>
  <style type="text/css">
   <![CDATA[
    .fil1 {fill:#FEFEFE}
    .fil0 {fill:#F7931A}
   ]]>
  </style>
 </defs>
 <g id="Layer_x0020_1">
  <metadata id="CorelCorpID_0Corel-Layer"/>
  <circle class="fil0" cx="887.9" cy="887.9" r="887.9"/>
  <path class="fil1" d="M515.84 531.16l-0.44 101.97 51.56 0c22.13,0 44.26,0 55.29,11.15 11.01,11.16 10.91,33.46 10.82,55.76l-1.57 358.67c-0.1,22.3 -0.2,44.61 -11.31,55.76 -11.12,11.15 -33.25,11.15 -55.39,11.15l-34.8 0 -17.28 119.02 186.26 0 -0.66 151.36 98.68 0 0.66 -151.36 69.58 0 -0.66 151.36 98.67 0 0.66 -151.36c149.36,3.6 288.5,-97.01 294.38,-196.64 4.75,-80.37 -15.88,-156.59 -138.31,-201.99 72.66,-74.6 106.99,-143.92 58.29,-236.14 -31.53,-59.7 -126.08,-80.9 -194.79,-78.71l0.66 -151.36 -98.67 0 -0.66 151.36 -69.58 0 0.66 -151.36 -98.68 0 -0.66 151.36 -202.71 0zm283.62 302.42l0.87 -198.85 92.35 0c60.59,4.08 122.25,20.18 123.56,94.33 1.16,65.81 -67.04,103.84 -128.23,104.52l-88.55 0zm118.51 91.77c73.28,3.26 139.59,20.18 148.85,94.03 8.82,70.32 -85.94,101.62 -148.45,102.27l-120.17 0 0.86 -196.3 118.91 0z"/>
 </g>
</svg>
