<?xml version="1.0" encoding="UTF-8"?>
<!DOCTYPE svg PUBLIC "-//W3C//DTD SVG 1.1//EN" "http://www.w3.org/Graphics/SVG/1.1/DTD/svg11.dtd">
<!-- Creator: CorelDRAW 2017 -->
<svg xmlns="http://www.w3.org/2000/svg" xml:space="preserve" width="76.171mm" height="19.96mm" version="1.1" style="shape-rendering:geometricPrecision; text-rendering:geometricPrecision; image-rendering:optimizeQuality; fill-rule:evenodd; clip-rule:evenodd"
viewBox="0 0 7617.1 1996"
 xmlns:xlink="http://www.w3.org/1999/xlink">
 <defs>
  <style type="text/css">
   <![CDATA[
    .fil1 {fill:white}
    .fil0 {fill:#F7931A}
   ]]>
  </style>
 </defs>
 <g id="Layer_x0020_1">
  <metadata id="CorelCorpID_0Corel-Layer"/>
  <path class="fil1" d="M519.09 830.81l-29.42 -110.77 219.95 -59.45 -43.68 -164.43 107.07 -28.94 43.67 164.43 75.5 -20.41 -43.67 -164.42 107.06 -28.94 43.67 164.42c73.92,-22.53 182.73,-27.26 234.44,28.27 79.89,85.78 62.97,171.06 6.02,273.32 146.16,13.35 190.9,90.01 209.31,178.61 22.84,109.82 -98.63,259.79 -261.75,299.69l43.68 164.43 -107.06 28.94 -43.68 -164.43 -75.49 20.41 43.67 164.42 -107.07 28.94 -43.67 -164.42 -202.1 54.63 -16.16 -134.21 37.76 -10.21c24.02,-6.49 48.04,-12.98 56.83,-28.34 8.79,-15.36 2.35,-39.59 -4.08,-63.82l-103.5 -389.63c-6.43,-24.23 -12.87,-48.45 -28.09,-57.33 -15.23,-8.86 -39.25,-2.37 -63.26,4.12l-55.95 15.12zm1443.31 -93.5c-141.28,-531.9 -687.59,-846.38 -1220.21,-702.41 -532.63,143.97 -849.87,691.87 -708.59,1223.78 141.28,531.9 687.59,846.38 1220.21,702.41 532.62,-143.97 849.87,-691.87 708.59,-1223.78zm-731.71 350.87c-31.7,-77.41 -108.62,-76.32 -189.09,-58.37l-129.02 34.88 56.64 213.24 130.39 -35.25c67.63,-19.03 161.27,-80.79 131.08,-154.5zm-401.96 -339.2l57.37 216.01 96.09 -25.97c66.19,-18.69 129.03,-79.95 108.47,-151.02 -23.16,-80.06 -94.79,-79.45 -161.73,-66.1l-100.2 27.08z"/>
  <path class="fil0" d="M3393.15 927.95c67.94,-51.36 101.8,-115.62 101.8,-193 0,-156.39 -99.27,-234.46 -297.57,-234.46l-333.95 0 0 921.71 273.61 0 0 -674.36 50.21 0c45.83,0 68.63,15.9 68.63,47.91 0,34.55 -25.33,52.05 -76,52.05l0 245.51 52.74 0c45.83,0 68.86,14.97 68.86,44.92 0,17.73 -5.52,30.16 -16.81,37.07 -11.28,7.14 -30.63,10.6 -58.27,10.6l-46.52 0 0 236.3 52.05 0c54.81,0 98.35,-4.84 130.59,-14.28 32.47,-9.44 62.87,-26.02 90.97,-49.75 58.04,-49.97 87.06,-117.23 87.06,-201.29 0,-109.86 -49.05,-186.1 -147.4,-228.93z"/>
  <polygon class="fil0" points="3632.91,749.23 3632.91,1422.2 3885.79,1422.2 3885.79,749.23 "/>
  <path class="fil0" d="M3760.73 691.19c37.08,0 67.25,-11.29 90.97,-33.86 23.73,-22.34 35.47,-51.36 35.47,-86.37 0,-32.93 -12.43,-61.49 -37.54,-85.44 -25.1,-24.19 -54.58,-36.16 -88.9,-36.16 -34.32,0 -63.8,11.97 -88.9,36.16 -25.1,23.95 -37.54,52.51 -37.54,85.44 0,35.01 11.75,64.03 35.47,86.37 23.72,22.57 54.12,33.86 90.97,33.86z"/>
  <path class="fil0" d="M4006.01 500.49l0 553.44c0,95.58 19.34,172.5 58.04,230.31 30.63,45.37 71.16,81.3 121.83,107.79 50.44,26.48 104.34,39.85 161.46,39.85 6.21,0 15.89,0 29.01,-0.24l0 -265.09c-44.68,0 -75.54,-10.13 -92.35,-30.4 -16.82,-20.27 -25.11,-57.12 -25.11,-110.55l113.32 0 0 -266.7 -113.32 0 0 -258.41 -252.88 0z"/>
  <path class="fil0" d="M4563.14 836.51c-68.86,67.48 -103.18,148.56 -103.18,243.44 0,99.73 34.08,184.03 102.26,252.89 68.17,68.86 151.54,103.18 250.58,103.18 93.51,0 172.96,-31.32 238.14,-93.74 65.18,-62.42 101.34,-142.33 108.48,-239.29l-250.35 9.44c-17.97,49.98 -48.37,74.85 -90.97,74.85 -29.25,0 -53.67,-9.9 -73.24,-29.71 -19.58,-19.81 -29.25,-44.22 -29.25,-73.47 0,-28.79 9.21,-52.74 27.63,-71.63 18.43,-18.88 42.15,-28.32 70.94,-28.32 33.63,0 61.49,14.27 83.6,43.06l255.65 -9.44c-15.66,-82.22 -55.73,-149.7 -119.99,-202.91 -64.49,-52.97 -138.65,-79.45 -222.72,-79.45 -96.26,0 -178.72,33.62 -247.58,101.1z"/>
  <polygon class="fil1" points="5288.39,500.49 5288.39,1422.2 5562.01,1422.2 5562.01,500.49 "/>
  <path class="fil1" d="M5814.2 825.46c-58.04,59.88 -87.06,133.81 -87.06,221.33l0 375.41 252.88 0 0 -380.01c0,-38.7 15.67,-58.04 46.76,-58.04 31.55,0 47.21,19.34 47.21,58.04l0 380.01 252.89 0 0 -355.14c0,-96.97 -22.8,-172.74 -68.17,-227.09 -58.04,-69.79 -135.2,-104.56 -231.24,-104.56 -84.3,0 -155.23,29.94 -213.27,90.05z"/>
  <path class="fil1" d="M6474.05 849.64l0 572.56 252.88 0 0 -259.79 111.93 0 0 -265.32 -111.93 0 0 -22.8c0,-38.24 8.52,-67.72 25.79,-88.44 17.28,-20.73 41.69,-31.1 73.47,-31.1 2.54,0 6.92,-0.23 12.67,-0.92l0 -264.86 -26.94 0.46c-61.73,0 -120.92,18.2 -177.81,54.82 -56.88,36.39 -99.03,83.6 -127.13,141.41 -21.88,45.14 -32.93,99.96 -32.93,163.98z"/>
  <path class="fil1" d="M7012.29 836.29c-69.32,67.25 -104.1,150.16 -104.1,248.73 0,96.73 34.78,179.41 104.1,248.05 69.32,68.63 152.92,102.95 250.81,102.95 97.65,0 181.03,-34.09 250.35,-102.49 69.1,-68.4 103.64,-151.32 103.64,-248.51 0,-95.81 -34.09,-178.03 -102.49,-246.66 -68.17,-68.64 -149.93,-102.95 -245.51,-102.95 -101.8,0 -187.48,33.62 -256.8,100.88zm181.26 177.34c18.88,-19.58 41.68,-29.48 68.86,-29.48 27.4,0 50.44,9.9 69.32,29.48 18.89,19.57 28.33,43.52 28.33,72.08 0,27.87 -9.44,51.82 -28.56,71.86 -19.11,19.81 -42.14,29.71 -69.09,29.71 -26.72,0 -49.52,-9.9 -68.64,-29.71 -19.11,-20.04 -28.56,-43.99 -28.56,-71.86 0,-28.56 9.45,-52.51 28.34,-72.08z"/>
 </g>
</svg>
