<?xml version="1.0" encoding="UTF-8"?>
<!DOCTYPE svg PUBLIC "-//W3C//DTD SVG 1.1//EN" "http://www.w3.org/Graphics/SVG/1.1/DTD/svg11.dtd">
<!-- Creator: CorelDRAW 2017 -->
<svg xmlns="http://www.w3.org/2000/svg" xml:space="preserve" width="17.758mm" height="17.758mm" version="1.1" style="shape-rendering:geometricPrecision; text-rendering:geometricPrecision; image-rendering:optimizeQuality; fill-rule:evenodd; clip-rule:evenodd"
viewBox="0 0 1775.8 1775.8"
 xmlns:xlink="http://www.w3.org/1999/xlink">
 <defs>
  <style type="text/css">
   <![CDATA[
    .fil1 {fill:#FEFEFE}
    .fil0 {fill:black}
   ]]>
  </style>
 </defs>
 <g id="Layer_x0020_1">
  <metadata id="CorelCorpID_0Corel-Layer"/>
  <circle class="fil0" cx="887.9" cy="887.9" r="887.9"/>
  <path class="fil1" d="M647.85 839.02c-14.57,-26.09 -61.16,-119.59 -69.8,-140.24 -10.09,-24.49 -16.33,-31.87 -31.22,-37.62l-9.45 -3.53 -80.85 0.8c-57.64,0.8 -82.61,1.61 -87.09,3.05 -13.13,4.16 -18.89,15.21 -14.89,28.65 4,12.97 28.81,67.4 49.95,109.5 54.6,108.23 99.58,179.95 165.54,264.17 37.95,48.35 73.33,78.76 131.12,112.7 39.87,23.54 80.06,37.15 123.44,41.95 21.62,2.24 103.27,1.28 109.83,-1.6 18.1,-7.52 21.62,-14.41 23.38,-43.87 1.44,-24.97 3.2,-36.02 8,-50.43 7.05,-21.45 23.54,-38.74 36.51,-38.74 14.09,0.16 34.42,15.68 61.79,47.39 49.48,57.31 71.25,75.4 103.91,86.29l12.81 4.33 79.25 -1.13c83.73,-1.12 98.94,-2.08 108.87,-7.04 8.32,-4.32 15.69,-13.13 16.81,-20.5 2.24,-13.45 -3.2,-29.13 -17.3,-50.43 -19.68,-29.45 -43.86,-56.35 -97.18,-107.42 -19.05,-18.25 -37.62,-36.98 -41.3,-41.62 -12.65,-16.5 -14.57,-30.43 -6.57,-47.4 6.41,-13.44 15.53,-26.41 57.64,-81.8 19.05,-25.14 39.07,-51.72 44.35,-59.24 38.75,-54.27 61.32,-98.62 61.32,-120.24 0,-11.36 -4.16,-17.6 -14.89,-22.4l-8.33 -3.53 -98.46 0.33c-55.71,0.15 -101.02,0.95 -104.22,1.91 -8.01,2.08 -15.69,11.05 -21.46,24.66 -28.5,69 -52.19,113.66 -91.09,171.3 -16.82,25.14 -42.59,53.47 -53.64,59.24 -12.17,6.24 -25.94,-1.28 -32.18,-17.77 -5.28,-14.41 -6.24,-34.42 -4.64,-99.43 2.56,-104.05 2.4,-117.98 -1.76,-130.15 -1.93,-5.77 -5.28,-12.81 -7.36,-15.69 -8.01,-10.4 -25.79,-16.01 -61.33,-19.53 -19.05,-1.92 -87.9,-1.77 -111.1,0.16 -42.44,3.52 -64.69,12.17 -77.18,30.1 -5.12,7.52 -5.12,9.44 0.49,10.73 32.34,6.87 44.02,16.33 51.87,41.14 13.6,43.54 11.2,154.49 -4.01,187.31 -6.24,13.61 -8.96,15.85 -19.04,16.81 -11.86,0.96 -19.38,-3.04 -36.19,-19.53 -13.61,-13.13 -29.46,-35.22 -44.35,-61.64z"/>
 </g>
</svg>
